<svg id="visual" viewBox="0 0 1920 1080" width="1920" height="1080" xmlns="http://www.w3.org/2000/svg" xmlns:xlink="http://www.w3.org/1999/xlink" version="1.1"><rect x="0" y="0" width="1920" height="1080" fill="#ffffff"></rect><path d="M0 515L106.7 530.7C213.3 546.3 426.7 577.7 640 538.2C853.3 498.7 1066.7 388.3 1280 379.3C1493.3 370.3 1706.7 462.7 1813.3 508.8L1920 555L1920 1081L1813.3 1081C1706.7 1081 1493.3 1081 1280 1081C1066.7 1081 853.3 1081 640 1081C426.7 1081 213.3 1081 106.7 1081L0 1081Z" fill="#bcdeff"></path><path d="M0 650L106.7 661.2C213.3 672.3 426.7 694.7 640 679C853.3 663.3 1066.7 609.7 1280 584.8C1493.3 560 1706.7 564 1813.3 566L1920 568L1920 1081L1813.3 1081C1706.7 1081 1493.3 1081 1280 1081C1066.7 1081 853.3 1081 640 1081C426.7 1081 213.3 1081 106.7 1081L0 1081Z" fill="#66aeff"></path><path d="M0 626L106.7 660.8C213.3 695.7 426.7 765.3 640 791.2C853.3 817 1066.7 799 1280 796.5C1493.3 794 1706.7 807 1813.3 813.5L1920 820L1920 1081L1813.3 1081C1706.7 1081 1493.3 1081 1280 1081C1066.7 1081 853.3 1081 640 1081C426.7 1081 213.3 1081 106.7 1081L0 1081Z" fill="#0078ff"></path><path d="M0 960L106.7 944.8C213.3 929.7 426.7 899.3 640 881.3C853.3 863.3 1066.7 857.7 1280 871.5C1493.3 885.3 1706.7 918.7 1813.3 935.3L1920 952L1920 1081L1813.3 1081C1706.7 1081 1493.3 1081 1280 1081C1066.7 1081 853.3 1081 640 1081C426.7 1081 213.3 1081 106.7 1081L0 1081Z" fill="#6600ff"></path></svg>